# xmcd
#
# Track frame offsets:
#	150
#	17326
#	34166
#	52990
#	72774
#	86654
#	105670
#	121806
#	140870
#	157422
#
# Disc length: 2287 seconds
#
# Revision: 0
# Processed by: cddbd v1.5.2PL0 Copyright (c) Steve Scherf et al.
# Submitted via: dBpowerAMP V4.0
#
DISCID=8408ed0a
DTITLE=Bill Anderson - A Lot of Things Different
DYEAR=2001
DGENRE=Country
TTITLE0=Love Is a Fragile Thing
TTITLE1=When a Man Can't Get a Woman off His Mind
TTITLE2=A Lot of Things Different
TTITLE3=Fine Line
TTITLE4=When Two Worlds Collide
TTITLE5=I Can't Find an Angel
TTITLE6=Back When He Was Hungry
TTITLE7=A Death in the Family
TTITLE8=She's a Mistake I Made
TTITLE9=Too Country
EXTD=
EXTT0=
EXTT1=
EXTT2=
EXTT3=
EXTT4=
EXTT5=
EXTT6=
EXTT7=
EXTT8=
EXTT9=
PLAYORDER=
